<svg xmlns="http://www.w3.org/2000/svg" xmlns:xlink="http://www.w3.org/1999/xlink" contentStyleType="text/css" data-diagram-type="DESCRIPTION" height="729px" preserveAspectRatio="none" style="width:402px;height:729px;background:#FFFFFF;" version="1.1" viewBox="0 0 402 729" width="402px" zoomAndPan="magnify"><?plantuml 1.2026.4?><defs/><g><g class="title" data-source-line="2"><text fill="#000000" font-family="sans-serif" font-size="14" font-weight="700" lengthAdjust="spacing" textLength="298.7168" x="48.4561" y="24.5332">US001 &#8212; Configurar Perfil B&#225;sico (Contexto)</text></g><!--cluster AprendiFluxo--><g class="cluster" data-qualified-name="AprendiFluxo" data-source-line="9" id="ent0002"><rect fill="none" height="391" rx="2.5" ry="2.5" style="stroke:#181818;stroke-width:1;" width="192" x="7" y="202.1094"/><text fill="#000000" font-family="sans-serif" font-size="14" font-weight="700" lengthAdjust="spacing" textLength="90.2207" x="57.8896" y="218.6426">AprendiFluxo</text></g><!--entity UI--><g class="entity" data-qualified-name="AprendiFluxo.UI" data-source-line="10" id="ent0003"><rect fill="#F1F1F1" height="55.2188" rx="2.5" ry="2.5" style="stroke:#181818;stroke-width:0.5;" width="126.6133" x="33.5" y="238.1094"/><text fill="#000000" font-family="sans-serif" font-size="14" lengthAdjust="spacing" textLength="106.6133" x="43.5" y="262.6426">ProfileSetupView</text><text fill="#000000" font-family="sans-serif" font-size="14" lengthAdjust="spacing" textLength="23.3242" x="43.5" y="280.252">(UI)</text></g><!--entity Service--><g class="entity" data-qualified-name="AprendiFluxo.Service" data-source-line="11" id="ent0004"><rect fill="#F1F1F1" height="55.2188" rx="2.5" ry="2.5" style="stroke:#181818;stroke-width:0.5;" width="139.8135" x="27" y="387.1094"/><text fill="#000000" font-family="sans-serif" font-size="14" lengthAdjust="spacing" textLength="119.8135" x="37" y="411.6426">IUserProfileService</text><text fill="#000000" font-family="sans-serif" font-size="14" lengthAdjust="spacing" textLength="65.3584" x="37" y="429.252">(use case)</text></g><!--entity Repo--><g class="entity" data-qualified-name="AprendiFluxo.Repo" data-source-line="12" id="ent0005"><rect fill="#F1F1F1" height="55.2188" rx="2.5" ry="2.5" style="stroke:#181818;stroke-width:0.5;" width="160.0479" x="23" y="522.1094"/><text fill="#000000" font-family="sans-serif" font-size="14" lengthAdjust="spacing" textLength="140.0479" x="33" y="546.6426">IUserProfileRepository</text><text fill="#000000" font-family="sans-serif" font-size="14" lengthAdjust="spacing" textLength="91.0479" x="33" y="564.252">(port de sa&#237;da)</text></g><!--entity Student--><g class="entity" data-qualified-name="Student" data-source-line="7" id="ent0001"><ellipse cx="97.0239" cy="52.6094" fill="#F1F1F1" rx="8" ry="8" style="stroke:#181818;stroke-width:0.5;"/><path d="M97.0239,60.6094 L97.0239,87.6094 M84.0239,68.6094 L110.0239,68.6094 M97.0239,87.6094 L84.0239,102.6094 M97.0239,87.6094 L110.0239,102.6094" fill="none" style="stroke:#181818;stroke-width:0.5;"/><text fill="#000000" font-family="sans-serif" font-size="14" lengthAdjust="spacing" textLength="63.0479" x="65.5" y="118.6426">Estudante</text></g><!--entity LS--><g class="entity" data-qualified-name="LS" data-source-line="15" id="ent0006"><path d="M13,650.1094 C13,640.1094 103.1445,640.1094 103.1445,640.1094 C103.1445,640.1094 193.2891,640.1094 193.2891,650.1094 L193.2891,694.3281 C193.2891,704.3281 103.1445,704.3281 103.1445,704.3281 C103.1445,704.3281 13,704.3281 13,694.3281 L13,650.1094" fill="#F1F1F1" style="stroke:#181818;stroke-width:0.5;"/><path d="M13,650.1094 C13,660.1094 103.1445,660.1094 103.1445,660.1094 C103.1445,660.1094 193.2891,660.1094 193.2891,650.1094" fill="none" style="stroke:#181818;stroke-width:0.5;"/><text fill="#000000" font-family="sans-serif" font-size="14" lengthAdjust="spacing" textLength="77.8271" x="23" y="678.6426">localStorage</text><text fill="#000000" font-family="sans-serif" font-size="14" lengthAdjust="spacing" textLength="160.2891" x="23" y="696.252">(aprendifluxo-user-profile)</text></g><g class="entity" data-qualified-name="GMN11" data-source-line="23" id="ent0012"><path d="M218.5,520.1094 L218.5,579.1641 L387.6289,579.1641 L387.6289,530.1094 L377.6289,520.1094 L218.5,520.1094" fill="#FAFAFA" style="stroke:#181818;stroke-width:0.5;"/><path d="M377.6289,520.1094 L377.6289,530.1094 L387.6289,530.1094 L377.6289,520.1094" fill="#FAFAFA" style="stroke:#181818;stroke-width:1;"/><text fill="#000000" font-family="sans-serif" font-size="13" lengthAdjust="spacing" textLength="107.6753" x="224.5" y="538.6045">Sem autentica&#231;&#227;o.</text><text fill="#000000" font-family="sans-serif" font-size="13" lengthAdjust="spacing" textLength="148.1289" x="224.5" y="554.9561">Perfil exposto a minijogos</text><text fill="#000000" font-family="sans-serif" font-size="13" lengthAdjust="spacing" textLength="143.457" x="224.5" y="571.3076">e dashboard (Phase 1+).</text></g><!--link Student to UI--><g class="link" data-entity-1="ent0001" data-entity-2="ent0003" data-link-type="dependency" data-source-line="17" id="lnk7"><path d="M97,122.3894 C97,157.1594 97,202.5394 97,233.0694" fill="none" id="Student-to-UI" style="stroke:#181818;stroke-width:1;"/><polygon fill="#181818" points="97,238.0694,101,229.0694,97,233.0694,93,229.0694,97,238.0694" style="stroke:#181818;stroke-width:1;stroke-linejoin:miter;stroke-miterlimit:10;"/><text fill="#000000" font-family="sans-serif" font-size="13" lengthAdjust="spacing" textLength="93.9517" x="98" y="166.6045">preenche nome,</text><text fill="#000000" font-family="sans-serif" font-size="13" lengthAdjust="spacing" textLength="60.7026" x="114.6245" y="182.9561">curso, ano</text></g><!--link UI to Service--><g class="link" data-entity-1="ent0003" data-entity-2="ent0004" data-link-type="dependency" data-source-line="18" id="lnk8"><path d="M97,293.2294 C97,319.7094 97,355.1094 97,381.6894" fill="none" id="UI-to-Service" style="stroke:#181818;stroke-width:1;"/><polygon fill="#181818" points="97,386.6894,101,377.6894,97,381.6894,93,377.6894,97,386.6894" style="stroke:#181818;stroke-width:1;stroke-linejoin:miter;stroke-miterlimit:10;"/><text fill="#000000" font-family="sans-serif" font-size="13" lengthAdjust="spacing" textLength="80.2026" x="98" y="337.6045">upsertProfile /</text><text fill="#000000" font-family="sans-serif" font-size="13" lengthAdjust="spacing" textLength="57.8081" x="109.1973" y="353.9561">hasProfile</text></g><!--link Service to Repo--><g class="link" data-entity-1="ent0004" data-entity-2="ent0005" data-link-type="dependency" data-source-line="19" id="lnk9"><path d="M98.2,442.1994 C99.25,465.3994 100.5359,493.8844 101.5759,517.0644" fill="none" id="Service-to-Repo" style="stroke:#181818;stroke-width:1;"/><polygon fill="#181818" points="101.8,522.0594,105.3926,512.8891,101.5759,517.0644,97.4006,513.2477,101.8,522.0594" style="stroke:#181818;stroke-width:1;stroke-linejoin:miter;stroke-miterlimit:10;"/><text fill="#000000" font-family="sans-serif" font-size="13" lengthAdjust="spacing" textLength="101.8862" x="102" y="486.6045">load / save / clear</text></g><!--link Repo to LS--><g class="link" data-entity-1="ent0005" data-entity-2="ent0006" data-link-type="dependency" data-source-line="20" id="lnk10"><path d="M103,577.3494 C103,595.7994 103,615.3794 103,634.7494" fill="none" id="Repo-to-LS" style="stroke:#181818;stroke-width:1;"/><polygon fill="#181818" points="103,639.7494,107,630.7494,103,634.7494,99,630.7494,103,639.7494" style="stroke:#181818;stroke-width:1;stroke-linejoin:miter;stroke-miterlimit:10;"/></g><!--link Service to GMN11--><g class="link" data-entity-1="ent0004" data-entity-2="ent0012" data-link-type="association" data-source-line="23" id="lnk13"><path d="M157.9,442.1294 C175.82,450.8294 195.14,461.1094 212,472.1094 C233.61,486.1994 255.81,504.7694 272.88,520.0894" fill="none" id="Service-GMN11" style="stroke:#181818;stroke-width:1;stroke-dasharray:7,7;"/></g><?plantuml-src TL9BZXCn4Dtx5ANUa8ZfP6RB0WaYHeg4H4Ghh6PJSLUwJTmkovzCHWY9Gt01n88LfyXDECbKfni26U6LxNhlrNjbnvrn7WDsblMEQkZOiMu3TmGfP5Bnehv1lMi2PrSls7A0szDw0eijrdnlN0DRjF6fZ1SPRAXA3vOWa4xe6alg6RpBoUVq0hn5bt9deKnntq39C9lD-vrcb-YGPbwAAfaa_7LrVNq3lxvyXGMxhMbom00h2bjZuVNnMpIQOR8OU3nLPpCYrdbsvDAbaJFaCeb2dIHtyIQcN8j7AW0ZL78G6QN6O52yye5SRMvjFd01dnIScq6n2YpcgAAK_GT3ztTkibvEJqhhvR_GvJfI-8CFUwD9q3aIQ8mqSCRx_nFVa-TenFU3S3s713L1nEFF6WU57g0-ArLZmeteGY4FXROIYgGH4WvnjdsSKhg7qW_I0_zjfTGu0oZBbv82v0q3aTCjWPFlT7NdT0wHhm0TAwdtiD6uOBCNpJJQXVcTQp6E9_KRrJDwemAtZ3NC9S9UmA0jOL2dKe_fpJXE11jEYJlWxLyJggW3p4cC6et77yVlF9FRyRVGGUQK610wuyn7RZXAaQ36s6uOGmsJLTkFv-RvTAPa8D3tKOy0?></g></svg>