<svg xmlns="http://www.w3.org/2000/svg" xmlns:xlink="http://www.w3.org/1999/xlink" contentStyleType="text/css" data-diagram-type="DESCRIPTION" height="565px" preserveAspectRatio="none" style="width:781px;height:565px;background:#FFFFFF;" version="1.1" viewBox="0 0 781 565" width="781px" zoomAndPan="magnify"><?plantuml 1.2026.4?><defs/><g><g class="title" data-source-line="2"><text fill="#000000" font-family="sans-serif" font-size="14" font-weight="700" lengthAdjust="spacing" textLength="336.0137" x="219.2509" y="24.5332">AprendiFluxo &#8212; Contexto (Arquitetura Hexagonal)</text></g><!--cluster AprendiFluxo--><g class="cluster" data-qualified-name="AprendiFluxo" data-source-line="9" id="ent0002"><rect fill="none" height="365" rx="2.5" ry="2.5" style="stroke:#181818;stroke-width:1;" width="188" x="7" y="186.1094"/><text fill="#000000" font-family="sans-serif" font-size="14" font-weight="700" lengthAdjust="spacing" textLength="90.2207" x="55.8896" y="202.6426">AprendiFluxo</text></g><!--entity Frontend--><g class="entity" data-qualified-name="AprendiFluxo.Frontend" data-source-line="10" id="ent0003"><rect fill="#F1F1F1" height="55.2188" rx="2.5" ry="2.5" style="stroke:#181818;stroke-width:0.5;" width="146.0342" x="28" y="222.1094"/><text fill="#000000" font-family="sans-serif" font-size="14" lengthAdjust="spacing" textLength="109.7441" x="38" y="246.6426">adapters/frontend</text><text fill="#000000" font-family="sans-serif" font-size="14" lengthAdjust="spacing" textLength="126.0342" x="38" y="264.252">(React, shell, vistas)</text></g><!--entity Ports--><g class="entity" data-qualified-name="AprendiFluxo.Ports" data-source-line="11" id="ent0004"><rect fill="#F1F1F1" height="55.2188" rx="2.5" ry="2.5" style="stroke:#181818;stroke-width:0.5;" width="155.3857" x="23.5" y="338.1094"/><text fill="#000000" font-family="sans-serif" font-size="14" lengthAdjust="spacing" textLength="35.0137" x="33.5" y="362.6426">ports/</text><text fill="#000000" font-family="sans-serif" font-size="14" lengthAdjust="spacing" textLength="135.3857" x="33.5" y="380.252">(contratos, interfaces)</text></g><!--entity Core--><g class="entity" data-qualified-name="AprendiFluxo.Core" data-source-line="12" id="ent0005"><rect fill="#F1F1F1" height="55.2188" rx="2.5" ry="2.5" style="stroke:#181818;stroke-width:0.5;" width="111.041" x="45.5" y="480.1094"/><text fill="#000000" font-family="sans-serif" font-size="14" lengthAdjust="spacing" textLength="31.124" x="55.5" y="504.6426">core/</text><text fill="#000000" font-family="sans-serif" font-size="14" lengthAdjust="spacing" textLength="91.041" x="55.5" y="522.252">(dom&#237;nio puro)</text></g><!--entity Student--><g class="entity" data-qualified-name="Student" data-source-line="7" id="ent0001"><ellipse cx="101.0239" cy="52.6094" fill="#F1F1F1" rx="8" ry="8" style="stroke:#181818;stroke-width:0.5;"/><path d="M101.0239,60.6094 L101.0239,87.6094 M88.0239,68.6094 L114.0239,68.6094 M101.0239,87.6094 L88.0239,102.6094 M101.0239,87.6094 L114.0239,102.6094" fill="none" style="stroke:#181818;stroke-width:0.5;"/><text fill="#000000" font-family="sans-serif" font-size="14" lengthAdjust="spacing" textLength="63.0479" x="69.5" y="118.6426">Estudante</text></g><!--entity LS--><g class="entity" data-qualified-name="LS" data-source-line="15" id="ent0006"><path d="M211,494.1094 C211,484.1094 259.9136,484.1094 259.9136,484.1094 C259.9136,484.1094 308.8271,484.1094 308.8271,494.1094 L308.8271,520.7188 C308.8271,530.7188 259.9136,530.7188 259.9136,530.7188 C259.9136,530.7188 211,530.7188 211,520.7188 L211,494.1094" fill="#F1F1F1" style="stroke:#181818;stroke-width:0.5;"/><path d="M211,494.1094 C211,504.1094 259.9136,504.1094 259.9136,504.1094 C259.9136,504.1094 308.8271,504.1094 308.8271,494.1094" fill="none" style="stroke:#181818;stroke-width:0.5;"/><text fill="#000000" font-family="sans-serif" font-size="14" lengthAdjust="spacing" textLength="77.8271" x="221" y="522.6426">localStorage</text></g><!--entity Data--><g class="entity" data-qualified-name="Data" data-source-line="16" id="ent0007"><path d="M347,471.1094 L388,471.1094 A3.75,3.75 0 0 1 390.5,473.6094 L397.5,492.1094 L491.0684,492.1094 A2.5,2.5 0 0 1 493.5684,494.6094 L493.5684,541.8281 A2.5,2.5 0 0 1 491.0684,544.3281 L347,544.3281 A2.5,2.5 0 0 1 344.5,541.8281 L344.5,473.6094 A2.5,2.5 0 0 1 347,471.1094" fill="#F1F1F1" style="stroke:#181818;stroke-width:0.5;"/><line style="stroke:#181818;stroke-width:0.5;" x1="344.5" x2="397.5" y1="492.1094" y2="492.1094"/><text fill="#000000" font-family="sans-serif" font-size="14" lengthAdjust="spacing" textLength="31.1377" x="354.5" y="513.6426">data/</text><text fill="#000000" font-family="sans-serif" font-size="14" lengthAdjust="spacing" textLength="119.0684" x="354.5" y="531.252">(conte&#250;do est&#225;tico)</text></g><!--entity Backend--><g class="entity" data-qualified-name="Backend" data-source-line="17" id="ent0008"><path d="M537.2222,485.5708 C540.1132,477.1188 547.9443,474.7834 554.1817,481.9332 C557.8251,475.5506 564.4426,474.2997 568.7181,481.2438 C572.461,474.2129 576.7445,474.5618 581.5081,480.2145 C583.8674,471.249 590.8505,469.7696 596.7689,476.824 C600.1387,468.1419 607.2351,466.748 612.9367,474.5348 C617.1185,466.916 623.1114,467.9114 627.7316,474.0638 C631.967,468.3002 636.2702,466.1667 641.2225,473.3148 C646.4007,465.9676 653.168,467.5256 656.6866,475.0416 C661.7834,466.9841 668.438,467.7553 673.4161,475.17 C678.3067,468.5394 683.9242,470.0886 687.5265,476.5577 C692.8446,471.428 699.4933,473.7499 701.3275,480.5785 C705.7638,471.8668 713.7202,472.6191 718.6738,480.0216 C724.2322,473.3342 729.5602,474.5295 733.3809,481.8465 C739.3827,477.0823 743.6408,478.4462 746.4202,485.4247 C762.8988,485.6635 766.5154,497.5456 758.0502,509.7232 C765.1528,523.4145 761.2951,531.2409 745.7928,533.0581 C741.2127,539.4619 736.3705,539.4091 732.161,532.6736 C728.1162,539.9882 722.8349,540.6883 716.9905,534.7305 C713.3247,543.3984 705.9295,543.1368 701.3832,535.5774 C697.2521,542.8035 690.4667,540.5896 687.4189,534.446 C683.2209,541.3873 675.3875,540.7612 671.7205,533.8444 C667.993,541.0095 662.3415,542.3907 657.2537,535.217 C651.8214,541.1595 646.3394,541.4282 641.7604,534.2122 C638.7062,540.6889 632.5588,541.8967 628.5045,535.22 C623.0919,540.8463 617.9266,540.461 613.6179,533.8744 C609.0359,541.9157 604.2667,542.9049 598.0507,535.5237 C592.1429,544.1888 586.462,543.9978 581.5377,534.6234 C577.0445,540.7004 570.4422,540.9825 566.67,533.8142 C562.8533,540.5247 557.746,539.1802 553.891,533.8548 C548.7172,540.1491 541.8736,541.0989 537.6727,532.7755 C524.6638,528.3559 521.6985,519.3218 529.4831,508.0227 C521.7579,496.6793 523.9709,489.6836 537.2222,485.5708" fill="#F1F1F1" style="stroke:#181818;stroke-width:0.5;"/><text fill="#000000" font-family="sans-serif" font-size="14" lengthAdjust="spacing" textLength="195.2891" x="543.5" y="504.6426">FastAPI + Ollama + ChromaDB</text><text fill="#000000" font-family="sans-serif" font-size="14" lengthAdjust="spacing" textLength="112.8135" x="543.5" y="522.252">(Phase 1 &#8212; RAG)</text></g><g class="entity" data-qualified-name="GMN15" data-source-line="27" id="ent0016"><path d="M214,344.1094 L214,361.6094 L178.72,365.6094 L214,369.6094 L214,386.8125 A0,0 0 0 0 214,386.8125 L381.7959,386.8125 A0,0 0 0 0 381.7959,386.8125 L381.7959,354.1094 L371.7959,344.1094 L214,344.1094 A0,0 0 0 0 214,344.1094" fill="#FAFAFA" style="stroke:#181818;stroke-width:0.5;"/><path d="M371.7959,344.1094 L371.7959,354.1094 L381.7959,354.1094 L371.7959,344.1094" fill="#FAFAFA" style="stroke:#181818;stroke-width:0.5;"/><text fill="#000000" font-family="sans-serif" font-size="13" lengthAdjust="spacing" textLength="143.0762" x="220" y="362.6045">SurvivalSessionPayload,</text><text fill="#000000" font-family="sans-serif" font-size="13" lengthAdjust="spacing" textLength="146.7959" x="220" y="378.9561">IUserProfileRepository, &#8230;</text></g><!--link Student to Frontend--><g class="link" data-entity-1="ent0001" data-entity-2="ent0003" data-link-type="dependency" data-source-line="19" id="lnk9"><path d="M101,122.2594 C101,152.8194 101,189.9194 101,216.9494" fill="none" id="Student-to-Frontend" style="stroke:#181818;stroke-width:1;"/><polygon fill="#181818" points="101,221.9494,105,212.9494,101,216.9494,97,212.9494,101,221.9494" style="stroke:#181818;stroke-width:1;stroke-linejoin:miter;stroke-miterlimit:10;"/><text fill="#000000" font-family="sans-serif" font-size="13" lengthAdjust="spacing" textLength="20.96" x="102" y="166.6045">usa</text></g><!--link Frontend to Ports--><g class="link" data-entity-1="ent0003" data-entity-2="ent0004" data-link-type="dependency" data-source-line="20" id="lnk10"><path d="M101,277.3394 C101,295.6294 101,314.7894 101,333.0494" fill="none" id="Frontend-to-Ports" style="stroke:#181818;stroke-width:1;"/><polygon fill="#181818" points="101,338.0494,105,329.0494,101,333.0494,97,329.0494,101,338.0494" style="stroke:#181818;stroke-width:1;stroke-linejoin:miter;stroke-miterlimit:10;"/></g><!--link Ports to Core--><g class="link" data-entity-1="ent0004" data-entity-2="ent0005" data-link-type="dependency" data-source-line="21" id="lnk11"><path d="M101,393.2694 C101,418.1794 101,450.1694 101,475.0494" fill="none" id="Ports-to-Core" style="stroke:#181818;stroke-width:1;"/><polygon fill="#181818" points="101,480.0494,105,471.0494,101,475.0494,97,471.0494,101,480.0494" style="stroke:#181818;stroke-width:1;stroke-linejoin:miter;stroke-miterlimit:10;"/></g><!--link Ports to LS--><g class="link" data-entity-1="ent0004" data-entity-2="ent0006" data-link-type="dependency" data-source-line="22" id="lnk12"><path d="M131.28,393.2694 C161.1,419.5294 202.4069,455.9057 230.5469,480.6757" fill="none" id="Ports-to-LS" style="stroke:#181818;stroke-width:1;"/><polygon fill="#181818" points="234.3,483.9794,230.1873,475.0303,230.5469,480.6757,224.9015,481.0353,234.3,483.9794" style="stroke:#181818;stroke-width:1;stroke-linejoin:miter;stroke-miterlimit:10;"/><text fill="#000000" font-family="sans-serif" font-size="13" lengthAdjust="spacing" textLength="69.3672" x="186" y="437.6045">persist&#234;ncia</text></g><!--link Ports to Data--><g class="link" data-entity-1="ent0004" data-entity-2="ent0007" data-link-type="dependency" data-source-line="23" id="lnk13"><path d="M178.68,390.6994 C206.02,399.9194 236.72,411.1194 264,423.1094 C295.9,437.1194 325.7665,452.778 353.9165,468.528" fill="none" id="Ports-to-Data" style="stroke:#181818;stroke-width:1;"/><polygon fill="#181818" points="358.28,470.9694,352.3789,463.0842,353.9165,468.528,348.4727,470.0657,358.28,470.9694" style="stroke:#181818;stroke-width:1;stroke-linejoin:miter;stroke-miterlimit:10;"/><text fill="#000000" font-family="sans-serif" font-size="13" lengthAdjust="spacing" textLength="47.7026" x="299" y="437.6045">Phase 0</text></g><!--link Ports to Backend--><g class="link" data-entity-1="ent0004" data-entity-2="ent0008" data-link-type="dependency" data-source-line="24" id="lnk14"><path d="M178.67,388.6294 C184.86,390.2094 191.02,391.7194 197,393.1094 C266.62,409.2994 285.5,406.4094 355,423.1094 C417.62,438.1594 482.1887,456.8569 536.9187,473.5969" fill="none" id="Ports-to-Backend" style="stroke:#181818;stroke-width:1;stroke-dasharray:7,7;"/><polygon fill="#181818" points="541.7,475.0594,534.2635,468.6019,536.9187,473.5969,531.9236,476.252,541.7,475.0594" style="stroke:#181818;stroke-width:1;stroke-linejoin:miter;stroke-miterlimit:10;"/><text fill="#000000" font-family="sans-serif" font-size="13" lengthAdjust="spacing" textLength="47.7026" x="419" y="437.6045">Phase 1</text></g><?plantuml-src PL8xRXin4ErvYe6Qs8W-SUl2W2n7YG435YoaIpDUZbQ4kPmDELHa105oY5mWJOe0kO1RtIGdoN0bI_viiU3WlNapxv7fpeKM8pQUgpkoq73WQXcv8P2OoQGN-2rMTtNa7Eo4FKUOTjyhMbgYvQykrB10drxBj2g3DStbtXD4gWH3xScyWUiiRPPJQ3q6oOs7WQHL3GE6uN1KJXK7eRKCMmMDED7-SHifM3VrUStmxyTFc6mv34VZ-2Kx8SaHuIEjiUQ0_jWSzb6zfkL0GLxkSg2yD6Em4hNUUvyaMrsJUe09vbgeZ34xRz1xkbSFlXau38CUMco5OXejOjassC_Xw8PKkQ_poFi-h5mIJCUT-7H7UgxHSfGqqiOIIaJXr0UdlBZ0YdQTiy9vtbPnfD9bkTdy3OwXpP6tx8b2vhin5WLlCQa9lJ3qS_MhbZhArTmis5lI00hhSJnj7Ym39Tdy4bVjv2wKO2hFsK9lYad6iqju2zVUOuDwc9I7XXVdAZ5RbcadtVNTZ3zisyyroMBQxBA5mU1i7mMSGavezcN1jcQxVrTtTWxbrLoRMWrTazty2PN39s3PLU7j8kzsm71uzhZ57Zin9h3eKt7rKe0N-uZdEQxSIjEYb1o76TvxHjjNvF9JeZYBl72URgZbv3JG-xww_MsATD4p_m40?></g></svg>