<svg xmlns="http://www.w3.org/2000/svg" xmlns:xlink="http://www.w3.org/1999/xlink" contentStyleType="text/css" data-diagram-type="ACTIVITY" height="601px" preserveAspectRatio="none" style="width:404px;height:601px;background:#FFFFFF;" version="1.1" viewBox="0 0 404 601" width="404px" zoomAndPan="magnify"><?plantuml 1.2026.4?><defs/><g><g class="title" data-source-line="2"><text fill="#000000" font-family="sans-serif" font-size="14" font-weight="700" lengthAdjust="spacing" textLength="356.3232" x="22.9265" y="34.5332">Pipeline de PDFs &#8212; Actividade (sequencial, imut&#225;vel)</text></g><ellipse cx="102.0957" cy="63.6094" fill="#222222" rx="10" ry="10" style="stroke:#222222;stroke-width:1;"/><rect fill="#F1F1F1" height="50.1875" rx="12.5" ry="12.5" style="stroke:#181818;stroke-width:0.5;" width="125.7148" x="39.2383" y="93.6094"/><text fill="#000000" font-family="sans-serif" font-size="12" lengthAdjust="spacing" textLength="93.3867" x="49.2383" y="116.0664">Extra&#231;&#227;o de texto</text><text fill="#000000" font-family="sans-serif" font-size="12" lengthAdjust="spacing" textLength="105.7148" x="49.2383" y="131.1602">(PDF &#8594; texto bruto)</text><rect fill="#F1F1F1" height="50.1875" rx="12.5" ry="12.5" style="stroke:#181818;stroke-width:0.5;" width="133.3789" x="35.4063" y="163.7969"/><text fill="#000000" font-family="sans-serif" font-size="12" lengthAdjust="spacing" textLength="45.3574" x="45.4063" y="186.2539">Limpeza</text><text fill="#000000" font-family="sans-serif" font-size="12" lengthAdjust="spacing" textLength="113.3789" x="45.4063" y="201.3477">(normaliza&#231;&#227;o, ru&#237;do)</text><rect fill="#F1F1F1" height="50.1875" rx="12.5" ry="12.5" style="stroke:#181818;stroke-width:0.5;" width="100.0391" x="52.0762" y="233.9844"/><text fill="#000000" font-family="sans-serif" font-size="12" lengthAdjust="spacing" textLength="50.7012" x="62.0762" y="256.4414">Chunking</text><text fill="#000000" font-family="sans-serif" font-size="12" lengthAdjust="spacing" textLength="80.0391" x="62.0762" y="271.5352">(segmenta&#231;&#227;o)</text><rect fill="#F1F1F1" height="50.1875" rx="12.5" ry="12.5" style="stroke:#181818;stroke-width:0.5;" width="80.709" x="61.7412" y="304.1719"/><text fill="#000000" font-family="sans-serif" font-size="12" lengthAdjust="spacing" textLength="60.709" x="71.7412" y="326.6289">Embedding</text><text fill="#000000" font-family="sans-serif" font-size="12" lengthAdjust="spacing" textLength="53.3438" x="71.7412" y="341.7227">(vectores)</text><rect fill="#F1F1F1" height="50.1875" rx="12.5" ry="12.5" style="stroke:#181818;stroke-width:0.5;" width="108.043" x="48.0742" y="374.3594"/><text fill="#000000" font-family="sans-serif" font-size="12" lengthAdjust="spacing" textLength="88.043" x="58.0742" y="396.8164">Armazenamento</text><text fill="#000000" font-family="sans-serif" font-size="12" lengthAdjust="spacing" textLength="67.3418" x="58.0742" y="411.9102">(ChromaDB)</text><rect fill="#F1F1F1" height="50.1875" rx="12.5" ry="12.5" style="stroke:#181818;stroke-width:0.5;" width="172.1914" x="16" y="444.5469"/><text fill="#000000" font-family="sans-serif" font-size="12" lengthAdjust="spacing" textLength="104.0625" x="26" y="467.0039">Gera&#231;&#227;o dos Jogos</text><text fill="#000000" font-family="sans-serif" font-size="12" lengthAdjust="spacing" textLength="152.1914" x="26" y="482.0977">(SurvivalSessionPayload, &#8230;)</text><path d="M133.0957,504.7344 L133.0957,538.4375 L113.0957,542.4375 L133.0957,546.4375 L133.0957,580.1406 A0,0 0 0 0 133.0957,580.1406 L383.1763,580.1406 A0,0 0 0 0 383.1763,580.1406 L383.1763,514.7344 L373.1763,504.7344 L133.0957,504.7344 A0,0 0 0 0 133.0957,504.7344" fill="#FAFAFA" style="stroke:#181818;stroke-width:0.5;"/><path d="M373.1763,504.7344 L373.1763,514.7344 L383.1763,514.7344 L373.1763,504.7344" fill="#FAFAFA" style="stroke:#181818;stroke-width:0.5;"/><text fill="#000000" font-family="sans-serif" font-size="13" lengthAdjust="spacing" textLength="229.0806" x="139.0957" y="523.2295">Cada etapa recebe um DTO de entrada</text><text fill="#000000" font-family="sans-serif" font-size="13" lengthAdjust="spacing" textLength="206.6416" x="139.0957" y="539.5811">e devolve um DTO de sa&#237;da &#8212; sem</text><text fill="#000000" font-family="sans-serif" font-size="13" lengthAdjust="spacing" textLength="211.7007" x="139.0957" y="555.9326">efeitos colaterais ocultos (ADR-002).</text><text fill="#000000" font-family="sans-serif" font-size="13" lengthAdjust="spacing" textLength="214.6206" x="139.0957" y="572.2842">Status: n&#227;o implementado (Phase 1).</text><ellipse cx="102.0957" cy="542.4375" fill="none" rx="11" ry="11" style="stroke:#222222;stroke-width:1;"/><ellipse cx="102.0957" cy="542.4375" fill="#222222" rx="6" ry="6" style="stroke:#222222;stroke-width:1;"/><line style="stroke:#181818;stroke-width:1;" x1="102.0957" x2="102.0957" y1="73.6094" y2="93.6094"/><polygon fill="#181818" points="98.0957,83.6094,102.0957,93.6094,106.0957,83.6094,102.0957,87.6094" style="stroke:#181818;stroke-width:1;stroke-linejoin:miter;stroke-miterlimit:10;"/><line style="stroke:#181818;stroke-width:1;" x1="102.0957" x2="102.0957" y1="143.7969" y2="163.7969"/><polygon fill="#181818" points="98.0957,153.7969,102.0957,163.7969,106.0957,153.7969,102.0957,157.7969" style="stroke:#181818;stroke-width:1;stroke-linejoin:miter;stroke-miterlimit:10;"/><line style="stroke:#181818;stroke-width:1;" x1="102.0957" x2="102.0957" y1="213.9844" y2="233.9844"/><polygon fill="#181818" points="98.0957,223.9844,102.0957,233.9844,106.0957,223.9844,102.0957,227.9844" style="stroke:#181818;stroke-width:1;stroke-linejoin:miter;stroke-miterlimit:10;"/><line style="stroke:#181818;stroke-width:1;" x1="102.0957" x2="102.0957" y1="284.1719" y2="304.1719"/><polygon fill="#181818" points="98.0957,294.1719,102.0957,304.1719,106.0957,294.1719,102.0957,298.1719" style="stroke:#181818;stroke-width:1;stroke-linejoin:miter;stroke-miterlimit:10;"/><line style="stroke:#181818;stroke-width:1;" x1="102.0957" x2="102.0957" y1="354.3594" y2="374.3594"/><polygon fill="#181818" points="98.0957,364.3594,102.0957,374.3594,106.0957,364.3594,102.0957,368.3594" style="stroke:#181818;stroke-width:1;stroke-linejoin:miter;stroke-miterlimit:10;"/><line style="stroke:#181818;stroke-width:1;" x1="102.0957" x2="102.0957" y1="424.5469" y2="444.5469"/><polygon fill="#181818" points="98.0957,434.5469,102.0957,444.5469,106.0957,434.5469,102.0957,438.5469" style="stroke:#181818;stroke-width:1;stroke-linejoin:miter;stroke-miterlimit:10;"/><line style="stroke:#181818;stroke-width:1;" x1="102.0957" x2="102.0957" y1="494.7344" y2="531.4375"/><polygon fill="#181818" points="98.0957,521.4375,102.0957,531.4375,106.0957,521.4375,102.0957,525.4375" style="stroke:#181818;stroke-width:1;stroke-linejoin:miter;stroke-miterlimit:10;"/><?plantuml-src PP71RXCn48RlVegvaKX9MZY6KqXQ98JKY73aCbbFDrPipsAFbpOdJZm0uWKG4fnuYhn9dwJZ3GBKxCax_-UPt__alOiT9WoUcprP21ovsIKE198AcVn4tsApRnENQ9ViES7ry9rXUOUMFxdOmYtwVDwcqpROqaRkFK6YHZ2sdimpk2dI5Pb3vp5A2HwcaliMfWopsKKzTQuZxoBDEbMDED46wpyri7fUNMTu-FmD5esutbdKsYZJnqAnSUWdu4AHu_UU_DZyitLcs6J19CRCh-uauV7NyGVNxa9tmX_YIAV0mvUlft_OfY8yVgdqMnSwEg0IaLD0xmwdknD8vVZRdg3bhaGTt2gLgGqKvGGDubNOahKdjTTWE54UX8NsEr34obSBoxebNBqQnDVqroHdUCCjPqKs9VMkHx-Xd1t7DTvxHZlHU7xMMrcuCoQow0fSknC3i4IBG88TrgtGbg04MBs_gM_NkKbbfMhGFVl-VpMZlW-7v3E52jsI4pNJi4THUou3DyNNqcYnUZUzl7mndYct4PIIvn2hUutFqv28PHYjTvW9dYj6qK8rQXu1?></g></svg>